# AST/ASF file generated using VICON BodyLanguage
# -----------------------------------------------
:version 1.10
:name VICON
:units
  mass 1.0
  length 0.45
  angle deg
:documentation
   .ast/.asf automatically generated from VICON data using
   VICON BodyBuilder and BodyLanguage model FoxedUp or BRILLIANT.MOD
:root
   order TX TY TZ RX RY RZ
   axis XYZ
   position 0 0 0  
   orientation 0 0 0 
:bonedata
  begin
     id 1 
     name lhipjoint
     direction 0.64773 -0.699417 0.302095 
     length 2.48597 
     axis 0 0 0  XYZ
  end
  begin
     id 2 
     name lfemur
     direction 0.34202 -0.939693 0  
     length 6.71947  
     axis 0 0 20  XYZ
    dof rx ry rz
    limits (-160.0 20.0)
           (-70.0 70.0)
           (-60.0 70.0)
  end
  begin
     id 3 
     name ltibia
     direction 0.34202 -0.939693 0   
     length 8.08777   
     axis 0 0 20   XYZ
    dof rx
    limits (-10.0 170.0)
  end
  begin
     id 4 
     name lfoot
     direction 0.0808503 -0.222134 0.971658   
     length 2.08264   
     axis -90 7.62852e-016 20   XYZ
    dof rx rz
    limits (-45.0 90.0)
           (-70.0 20.0)
  end
  begin
     id 5 
     name ltoes
     direction 1.53502e-011 -4.22007e-011 1   
     length 1.04662   
     axis -90 7.62852e-016 20   XYZ
    dof rx
    limits (-90.0 20.0)
  end
  begin
     id 6 
     name rhipjoint
     direction -0.610924 -0.726792 0.313919   
     length 2.39233  
     axis 0 0 0  XYZ 
  end
  begin
     id 7 
     name rfemur
     direction -0.34202 -0.939693 0   
     length 6.96955   
     axis 0 0 -20   XYZ
    dof rx ry rz
    limits (-160.0 20.0)
           (-70.0 70.0)
           (-70.0 60.0)
  end
  begin
     id 8 
     name rtibia
     direction -0.34202 -0.939693 0   
     length 8.19584   
     axis 0 0 -20   XYZ
    dof rx
    limits (-10.0 170.0)
 end
 begin
     id 9 
     name rfoot
     direction -0.077777 -0.213691 0.9738   
     length 2.07539  
     axis -90 -7.62852e-016 -20   XYZ
    dof rx rz
    limits (-45.0 90.0)
           (-20.0 70.0)
  end
  begin
     id 10 
     name rtoes
     direction -1.53558e-011 -4.22006e-011 1   
     length 1.04381   
     axis -90 -7.62852e-016 -20   XYZ
    dof rx
    limits (-90.0 20.0)
  end
  begin
     id 11 
     name lowerback
     direction -0.00971646 0.996074 0.0879841   
     length 1.67643   
     axis 0 0 0   XYZ
    dof rx ry rz
    limits (-20.0 45.0)
           (-30.0 30.0)
           (-30.0 30.0)
  end
  begin
     id 12 
     name upperback
     direction 0.0127391 0.991676 0.128127   
     length 1.63741   
     axis 0 0 0   XYZ
    dof rx ry rz
    limits (-20.0 45.0)
           (-30.0 30.0)
           (-30.0 30.0)
  end
  begin
     id 13 
     name thorax
     direction 0.0167583 0.996049 0.0872067   
     length 1.65931   
     axis 0 0 0   XYZ
    dof rx ry rz
    limits (-20.0 45.0)
           (-30.0 30.0)
           (-30.0 30.0)
  end
  begin
     id 14 
     name lowerneck
     direction -0.0317829 0.998312 0.0486079   
     length 1.79021   
     axis 0 0 0   XYZ
    dof rx ry rz
    limits (-20.0 45.0)
           (-30.0 30.0)
           (-30.0 30.0)
  end
  begin
     id 15 
     name upperneck
     direction 0.0896851 0.972452 -0.215159   
     length 1.78797   
     axis 0 0 0   XYZ
    dof rx ry rz
    limits (-20.0 45.0)
           (-30.0 30.0)
           (-30.0 30.0)
  end
  begin
     id 16
     name head
     direction 0.0310949 0.996503 -0.0775582  
     length 1.81549  
     axis 0 0 0   XYZ
    dof rx ry rz
    limits (-20.0 45.0)
           (-30.0 30.0)
           (-30.0 30.0)
  end
  begin
     id 17 
     name lclavicle
     direction 0.853638 0.502051 -0.138733  
     length 3.31627  
     axis 0 0 0   XYZ
    dof ry rz
    limits (-20.0 10.0)
           (0.0 20.0)
  end
  begin
     id 18 
     name lhumerus
     direction 1 -4.48962e-011 -1.41788e-018   
     length 5.54893   
     axis 180 -30 -90   XYZ
    dof rx ry rz
    limits (-60.0 90.0)
           (-90.0 90.0)
           (-90.0 90.0)
  end
  begin
     id 19
     name lradius
     direction 1 -4.48962e-011 -4.95754e-027   
     length 3.02898   
     axis 180 -30 -90   XYZ
    dof rx
    limits (-10.0 170.0)
  end
  begin
     id 20
     name lwrist
     direction 1 -4.48952e-011 -1.03764e-026   
     length 1.51449   
     axis 9.09556e-015 90 90   XYZ
    dof ry
    limits (-180.0 0.0)
 end
  begin
     id 21 
     name lhand
     direction 1 -4.4902e-011 -2.07528e-026   
     length 0.640951   
     axis 1.3242e-014 90 90   XYZ
    dof rx rz
    limits (-90.0 90.0)
           (-45.0 45.0)
  end
  begin
     id 22 
     name lfingers
     direction 1 -4.49014e-011 -4.15056e-026   
     length 0.516751   
     axis 2.64841e-014 90 90   XYZ
    dof rx
    limits (0.0 90.0)
  end
  begin
     id 23
     name lthumb
     direction 0.707107 -6.35008e-011 0.707107   
     length 0.741954   
     axis -90 45 2.85299e-015   XYZ
    dof rx rz
    limits (-45.0 45.0)
           (-45.0 45.0)
  end
  begin
     id 24 
     name rclavicle
     direction -0.888531 0.455324 -0.0565039   
     length 3.20126  
     axis 0 0 0   XYZ 
    dof ry rz
    limits (-10.0 20.0)
           (-20.0 0.0)
  end
  begin
     id 25 
     name rhumerus
     direction -1 -4.48946e-011 -8.98298e-028  
     length 5.3519   
     axis 180 30 90   XYZ
    dof rx ry rz
    limits (-90.0 60.0)
           (-90.0 90.0)
           (-90.0 90.0)
  end
  begin
     id 26 
     name rradius
     direction -1 -4.4899e-011 -3.18779e-027   
     length 3.02531   
     axis 180 30 90   XYZ
    dof rx
    limits (-10.0 170.0)
  end
  begin
     id 27 
     name rwrist
     direction -1 -4.4897e-011 -1.03764e-026   
     length 1.51266   
     axis 9.09556e-015 -90 -90   XYZ
    dof ry
    limits (-180.0 0.0)
  end
  begin
     id 28
     name rhand
     direction -1 -4.48941e-011 -2.07528e-026   
     length 0.78389   
     axis 1.3242e-014 -90 -90   XYZ
    dof rx rz
    limits (-90.0 90.0)
           (-45.0 45.0)
  end
  begin
     id 29
     name rfingers
     direction -1 -4.49012e-011 -4.15056e-026   
     length 0.631992   
     axis 2.64841e-014 -90 -90   XYZ
    dof rx
    limits (0.0 90.0)
  end
  begin
     id 30
     name rthumb
     direction -0.707107 -6.3496e-011 0.707107   
     length 0.907418   
     axis -90 -45 -2.85299e-015   XYZ
    dof rx rz
    limits (-45.0 45.0)
           (-45.0 45.0)
  end
:hierarchy
  begin
    root lhipjoint rhipjoint lowerback
    lhipjoint lfemur
    lfemur ltibia
    ltibia lfoot
    lfoot ltoes
    rhipjoint rfemur
    rfemur rtibia
    rtibia rfoot
    rfoot rtoes
    lowerback upperback
    upperback thorax
    thorax lowerneck lclavicle rclavicle
    lowerneck upperneck
    upperneck head
    lclavicle lhumerus
    lhumerus lradius
    lradius lwrist
    lwrist lhand lthumb
    lhand lfingers
    rclavicle rhumerus
    rhumerus rradius
    rradius rwrist
    rwrist rhand rthumb
    rhand rfingers
  end

#!OML:ASF E:\Style3\Style3.ASF
:FULLY-SPECIFIED
:DEGREES
1
root -0.0756923 17.8586 0.546846 -55.0176 88.4952 -73.649
lowerback -11.1589 -0.740722 -2.2113
upperback -10.628 -0.209177 0.580076
thorax -4.89979 0.321322 1.80859
lowerneck -5.3077 -1.41478 -6.88963
upperneck 19.7702 -2.6256 10.4469
head 7.09388 -0.71534 4.40689
rclavicle -2.70844e-015 9.93923e-015
rhumerus -58.6833 -35.1617 -39.8889
rradius 16.5822
rwrist 16.2531
rhand -28.6401 30.8021
rfingers 7.12502
rthumb -2.00409 0.83173
lclavicle -2.70844e-015 9.93923e-015
lhumerus -58.0396 29.902 50.4706
lradius 24.6332
lwrist 0.820632
lhand -20.0158 15.1892
lfingers 7.12502
lthumb 6.32461 45.0748
rfemur -17.7207 12.3302 16.7636
rtibia 12.026
rfoot -12.5881 -20.8652
rtoes -15.6704
lfemur -11.004 -13.4763 -12.56
ltibia 2.54444e-014
lfoot -6.91835 17.4108
ltoes -16.837
2
root -0.0793545 17.86 0.545382 -50.8495 88.4538 -69.4729
lowerback -11.0974 -0.697298 -2.12289
upperback -10.6365 -0.161764 0.523531
thorax -4.94462 0.337381 1.70292
lowerneck -5.33349 -1.44454 -6.92056
upperneck 19.877 -2.679 10.5226
head 7.13916 -0.732972 4.43675
rclavicle 1.09332e-015 3.18055e-015
rhumerus -59.1187 -35.4123 -39.3614
rradius 16.6726
rwrist 16.5541
rhand -28.3321 30.8186
rfingers 7.12502
rthumb -1.70668 0.845725
lclavicle 1.09332e-015 3.18055e-015
lhumerus -57.8289 29.7218 50.6286
lradius 24.9216
lwrist 0.403444
lhand -18.84 14.3738
lfingers 7.12502
lthumb 7.45957 44.2223
rfemur -17.685 12.3379 16.7447
rtibia 11.904
rfoot -12.3641 -20.8152
rtoes -15.9706
lfemur -10.9805 -13.3635 -12.5957
ltibia 1.11319e-014
lfoot -6.93839 17.3734
ltoes -16.8874
3
root -0.0812854 17.8574 0.547093 -49.7757 88.2703 -68.3209
lowerback -10.9574 -0.654371 -1.95456
upperback -10.6384 -0.121732 0.551581
thorax -5.02457 0.347232 1.6405
lowerneck -5.35449 -1.46938 -6.94283
upperneck 19.9629 -2.71447 10.5294
head 7.17454 -0.748308 4.44266
rclavicle 7.70291e-016 0
rhumerus -59.4386 -35.4774 -39.0539
rradius 16.8432
rwrist 16.7179
rhand -28.1457 30.794
rfingers 7.12502
rthumb -1.52667 0.819709
lclavicle 7.70291e-016 0
lhumerus -57.6208 29.4518 50.9204
lradius 25.2051
lwrist 0.136533
lhand -18.2681 14.3134
lfingers 7.12502
lthumb 8.01163 44.1416
rfemur -17.4799 12.5066 16.9023
rtibia 11.6158
rfoot -12.0861 -20.854
rtoes -16.3862
lfemur -10.8687 -13.2148 -12.4368
ltibia 2.70347e-014
lfoot -7.26519 17.2186
ltoes -15.5779
4
root -0.0818293 17.854 0.553413 -53.1755 87.9312 -71.5558
lowerback -10.8322 -0.636854 -1.71115
upperback -10.5722 -0.121422 0.697003
thorax -5.02063 0.332954 1.65672
lowerneck -5.33268 -1.46379 -6.92485
upperneck 19.9588 -2.70142 10.4817
head 7.16746 -0.745677 4.42429
rclavicle -1.11816e-015 1.78906e-015
rhumerus -59.3663 -35.1468 -39.3259
rradius 17.0613
rwrist 16.2825
rhand -27.915 30.784
rfingers 7.12502
rthumb -1.30381 0.808241
lclavicle -1.11816e-015 1.78906e-015
lhumerus -57.2907 29.1876 51.4811
lradius 25.5194
lwrist 0.585792
lhand -18.5405 13.8447
lfingers 7.12502
lthumb 7.74864 43.6827
rfemur -17.2793 12.9177 17.285
rtibia 11.528
rfoot -12.0682 -21.0934
rtoes -16.3462
lfemur -10.6826 -13.0812 -12.0405
ltibia -2.22639e-014
lfoot -7.72086 17.0729
ltoes -13.8028
5
root -0.0834247 17.8543 0.556903 -49.9141 87.9254 -68.2526
lowerback -10.876 -0.670015 -1.89414
upperback -10.5077 -0.156106 0.771196
thorax -4.92553 0.326009 1.83518
lowerneck -5.34096 -1.44991 -6.88166
upperneck 19.9624 -2.66574 10.356
head 7.1653 -0.736604 4.37719
rclavicle -2.60905e-015 7.7526e-015
rhumerus -59.051 -34.6438 -39.9002
rradius 17.3117
rwrist 15.5979
rhand -27.6729 30.7889
rfingers 7.12502
rthumb -1.07001 0.811846
lclavicle -2.60905e-015 7.7526e-015
lhumerus -56.9081 29.1083 52.023
lradius 25.804
lwrist 1.03367
lhand -18.4062 13.2416
lfingers 7.12502
lthumb 7.87831 43.0748
rfemur -17.2802 13.1618 17.2014
rtibia 11.5278
rfoot -12.0576 -21.2226
rtoes -16.329
lfemur -10.6113 -12.9968 -12.1454
ltibia 1.43125e-014
lfoot -7.38935 17.1949
ltoes -16.0327
6
root -0.0868287 17.8571 0.552897 -41.8807 88.1113 -60.3224
lowerback -11.0199 -0.704977 -2.19664
upperback -10.5017 -0.17896 0.733917
thorax -4.83992 0.331694 1.96437
lowerneck -5.31809 -1.43861 -6.92957
upperneck 19.9466 -2.64383 10.3491
head 7.15441 -0.731591 4.38436
rclavicle 4.5472e-015 -1.2921e-014
rhumerus -58.9147 -34.3704 -40.2101
rradius 17.5673
rwrist 15.234
rhand -27.3559 30.7962
rfingers 7.12502
rthumb -0.763786 0.817794
lclavicle 4.5472e-015 -1.2921e-014
lhumerus -56.5923 28.9926 52.4709
lradius 26.1347
lwrist 1.12247
lhand -17.7532 13.9086
lfingers 7.12502
lthumb 8.50849 43.7171
rfemur -17.4748 13.0282 16.8316
rtibia 11.6002
rfoot -12.017 -21.057
rtoes -16.2473
lfemur -10.7028 -12.9389 -12.5315
ltibia 1.74931e-014
lfoot -7.06315 17.3129
ltoes -17.7829
7
root -0.0930992 17.8595 0.544197 -38.4883 88.2461 -56.9755
lowerback -11.0075 -0.737273 -2.2064
upperback -10.5176 -0.22289 0.666061
thorax -4.86165 0.308227 1.89581
lowerneck -5.25328 -1.43284 -6.89595
upperneck 19.9339 -2.63422 10.3087
head 7.13698 -0.729548 4.36527
rclavicle -2.23633e-016 7.95139e-016
rhumerus -58.7443 -34.0405 -40.679
rradius 17.7983
rwrist 14.8666
rhand -27.1787 30.5569
rfingers 7.12502
rthumb -0.59273 0.577941
lclavicle -2.23633e-016 7.95139e-016
lhumerus -56.1408 28.2963 53.4533
lradius 26.7829
lwrist 2.0701
lhand -17.5724 14.1208
lfingers 7.12502
lthumb 8.68297 43.9222
rfemur -17.6337 12.6592 16.6616
rtibia 11.8139
rfoot -12.1125 -20.7403
rtoes -16.3376
lfemur -10.7659 -12.9823 -12.7425
ltibia 9.54166e-015
lfoot -7.0246 17.3139
ltoes -18.0133
8
root -0.0974934 17.8616 0.53638 -37.7338 88.2843 -56.201
lowerback -11.0068 -0.760777 -2.13518
upperback -10.4783 -0.263302 0.649878
thorax -4.81717 0.280025 1.83645
lowerneck -5.24635 -1.43692 -6.86411
upperneck 19.9617 -2.63619 10.2585
head 7.14421 -0.73204 4.34345
rclavicle 2.73329e-016 -9.93923e-015
rhumerus -58.5834 -33.8912 -40.9652
rradius 17.9734
rwrist 14.7987
rhand -26.9883 30.4814
rfingers 7.12502
rthumb -0.408742 0.502072
lclavicle 2.73329e-016 -9.93923e-015
lhumerus -55.6293 27.5284 54.6565
lradius 27.6565
lwrist 3.53733
lhand -18.0575 14.0539
lfingers 7.12502
lthumb 8.21483 43.8742
rfemur -17.7195 12.349 16.6475
rtibia 12.0281
rfoot -12.1544 -20.4776
rtoes -16.7438
lfemur -10.7466 -13.0123 -12.8314
ltibia 1.59028e-014
lfoot -6.90335 17.3408
ltoes -18.1776
9
root -0.10275 17.8591 0.532974 -37.2639 88.2961 -55.7017
lowerback -10.9733 -0.800843 -2.13552
upperback -10.4495 -0.319971 0.685658
thorax -4.80139 0.250773 1.87055
lowerneck -5.2235 -1.4281 -6.86522
upperneck 19.9697 -2.61607 10.2067
head 7.14042 -0.727535 4.32792
rclavicle -1.9133e-015 -6.16232e-015
rhumerus -58.462 -33.9897 -40.9557
rradius 18.0191
rwrist 15.0912
rhand -26.8227 30.3717
rfingers 7.12502
rthumb -0.248827 0.39206
lclavicle -1.9133e-015 -6.16232e-015
lhumerus -55.2071 27.0202 55.5501
lradius 28.2893
lwrist 4.36101
lhand -18.2205 14.2311
lfingers 7.12502
lthumb 8.05755 44.0575
rfemur -17.7784 12.262 16.6367
rtibia 12.1538
rfoot -12.1601 -20.4123
rtoes -16.7958
lfemur -10.7619 -13.0067 -12.8217
ltibia -7.95139e-015
lfoot -7.13321 17.2204
ltoes -16.486
10
root -0.104909 17.858 0.532034 -34.7657 88.2267 -53.2271
lowerback -11.0185 -0.791303 -2.13239
upperback -10.4428 -0.30634 0.702208
thorax -4.7701 0.25749 1.88699
lowerneck -5.24841 -1.42188 -6.86349
upperneck 20.061 -2.61069 10.2136
head 7.17398 -0.721182 4.33295
rclavicle -5.71506e-016 -5.76476e-015
rhumerus -58.3982 -34.2155 -40.8591
rradius 17.991
rwrist 15.4986
rhand -26.7184 30.3315
rfingers 7.12502
rthumb -0.148146 0.351851
lclavicle -5.71506e-016 -5.76476e-015
lhumerus -54.7578 26.5003 56.3129
lradius 28.6684
lwrist 4.79318
lhand -18.2223 14.2036
lfingers 7.12502
lthumb 8.0558 44.03
rfemur -17.8368 12.2672 16.6173
rtibia 12.1599
rfoot -12.1738 -20.3172
rtoes -16.8106
lfemur -10.7767 -12.8947 -12.8054
ltibia -4.45278e-014
lfoot -7.67044 17.0713
ltoes -14.094
